<?xml version="1.0" encoding="utf-8"?>
<!-- Generator: Adobe Illustrator 18.1.1, SVG Export Plug-In . SVG Version: 6.00 Build 0)  -->
<svg version="1.1" id="Layer_1" xmlns="http://www.w3.org/2000/svg" xmlns:xlink="http://www.w3.org/1999/xlink" x="0px" y="0px"
	 viewBox="-281 404.9 32 32" enable-background="new -281 404.9 32 32" xml:space="preserve">
<path fill="#FFFFFF" d="M-277,414.9h24c1.1,0,2-0.9,2-2c0-1.1-0.9-2-2-2h-24c-1.1,0-2,0.9-2,2C-279,414-278.1,414.9-277,414.9z
	 M-253,418.9h-24c-1.1,0-2,0.9-2,2c0,1.1,0.9,2,2,2h24c1.1,0,2-0.9,2-2C-251,419.8-251.9,418.9-253,418.9z M-253,426.9h-24
	c-1.1,0-2,0.9-2,2c0,1.1,0.9,2,2,2h24c1.1,0,2-0.9,2-2C-251,427.8-251.9,426.9-253,426.9z"/>
</svg>
